<svg width="300" height="300" viewBox="0 0 300 300" fill="none" xmlns="http://www.w3.org/2000/svg">
<path fill-rule="evenodd" clip-rule="evenodd" d="M155.958 5.26225C152.555 2.25637 147.445 2.25637 144.042 5.26225L115.056 30.8634C113.189 32.5122 110.723 33.3138 108.243 33.0771L69.7452 29.4027C65.2251 28.9713 61.0917 31.9746 60.1053 36.4068L51.7032 74.1558C51.162 76.587 49.6377 78.6855 47.4924 79.9512L14.1873 99.6072C10.2769 101.915 8.69799 106.774 10.5051 110.94L25.8961 146.418C26.8874 148.703 26.8874 151.297 25.8961 153.582L10.5051 189.06C8.69799 193.226 10.2769 198.085 14.1873 200.393L47.4924 220.049C49.6377 221.315 51.162 223.413 51.7032 225.844L60.1053 263.593C61.0917 268.025 65.2251 271.029 69.7452 270.597L108.243 266.923C110.723 266.686 113.189 267.488 115.056 269.137L144.042 294.738C147.445 297.744 152.555 297.744 155.958 294.738L184.944 269.137C186.811 267.488 189.277 266.686 191.757 266.923L230.255 270.597C234.775 271.029 238.908 268.025 239.895 263.593L248.297 225.844C248.838 223.413 250.362 221.315 252.507 220.049L285.813 200.393C289.723 198.085 291.302 193.226 289.495 189.06L274.104 153.582C273.113 151.297 273.113 148.703 274.104 146.418L289.495 110.94C291.302 106.774 289.723 101.915 285.813 99.6072L252.507 79.9512C250.362 78.6855 248.838 76.587 248.297 74.1558L239.895 36.4068C238.908 31.9746 234.775 28.9713 230.255 29.4027L191.757 33.0771C189.277 33.3138 186.811 32.5122 184.944 30.8634L155.958 5.26225ZM148.5 255C207.318 255 255 207.318 255 148.5C255 89.6817 207.318 42 148.5 42C89.6817 42 42 89.6817 42 148.5C42 207.318 89.6817 255 148.5 255Z" fill="url(#paint0_radial_215_154)"/>
<path d="M240 148.5C240 199.034 199.034 240 148.5 240C97.9659 240 57 199.034 57 148.5C57 97.9659 97.9659 57 148.5 57C199.034 57 240 97.9659 240 148.5Z" fill="url(#paint1_radial_215_154)"/>
<path d="M198.932 110C197.14 110 195.27 110.588 193.905 111.932L132.954 172.089C131.155 173.86 129.349 173.532 127.935 171.446L106.962 140.506C104.82 137.349 100.34 136.467 97.1269 138.574C93.9208 140.681 93.0248 145.084 95.1668 148.241L116.133 179.18C122.447 188.483 134.746 189.666 142.79 181.756L203.958 121.816C206.681 119.128 206.681 114.62 203.958 111.932C202.593 110.588 200.717 110 198.932 110Z" fill="url(#paint2_radial_215_154)"/>
<defs>
<radialGradient id="paint0_radial_215_154" cx="0" cy="0" r="1" gradientUnits="userSpaceOnUse" gradientTransform="translate(150 150) rotate(90) scale(146.992 140.24)">
<stop stop-color="#37C871"/>
<stop offset="0.63" stop-color="#217844"/>
<stop offset="1" stop-color="#16502D"/>
</radialGradient>
<radialGradient id="paint1_radial_215_154" cx="0" cy="0" r="1" gradientUnits="userSpaceOnUse" gradientTransform="translate(148.5 148.5) rotate(90) scale(91.5)">
<stop stop-color="#37C871"/>
<stop offset="0.63" stop-color="#217844"/>
<stop offset="1" stop-color="#16502D"/>
</radialGradient>
<radialGradient id="paint2_radial_215_154" cx="0" cy="0" r="1" gradientUnits="userSpaceOnUse" gradientTransform="translate(150 148.5) rotate(90) scale(38.5 56)">
<stop stop-color="#FFFCFC"/>
<stop offset="1" stop-color="#BFBFBF"/>
</radialGradient>
</defs>
</svg>
