<svg width="17" height="17" viewBox="0 0 17 17" fill="none" xmlns="http://www.w3.org/2000/svg">
<path d="M1.99434 0.906372C1.73844 0.906372 1.47084 0.992378 1.27554 1.18738C0.885041 1.57838 0.885041 2.23437 1.27554 2.62537L7.55684 8.90637L1.27554 15.1874C0.885041 15.5784 0.885041 16.2344 1.27554 16.6254C1.66614 17.0154 2.32254 17.0154 2.71314 16.6254L8.99434 10.3444L15.2755 16.6254C15.6661 17.0154 16.3225 17.0154 16.7131 16.6254C17.1036 16.2344 17.1036 15.5784 16.7131 15.1874L10.4318 8.90637L16.7131 2.62537C17.1036 2.23437 17.1036 1.57838 16.7131 1.18738C16.5178 0.992378 16.2501 0.906372 15.9943 0.906372C15.7384 0.906372 15.4709 0.992378 15.2755 1.18738L8.99434 7.46837L2.71314 1.18738C2.51784 0.992378 2.25024 0.906372 1.99434 0.906372Z" fill="#fff"/>
</svg>
