<svg width="24" height="24" viewBox="0 0 24 24" fill="true" xmlns="http://www.w3.org/2000/svg">
<path d="M11.9984 2.01416C10.7054 2.01416 9.24742 5.96416 9.06042 11.0142H14.9364C14.7494 5.96516 13.2914 2.01416 11.9984 2.01416ZM8.84241 2.51416C5.15541 3.74316 2.37942 7.11516 2.02942 11.0142H7.06042C7.17142 7.57516 7.79241 4.52516 8.84241 2.51416ZM15.1544 2.51416C16.2044 4.52516 16.8254 7.57516 16.9364 11.0142H21.9364C21.5744 7.06916 18.8774 3.76516 15.1544 2.51416ZM2.06042 13.0142C2.42042 17.0212 5.20241 20.3042 8.87341 21.5142C7.82441 19.5032 7.17142 16.4532 7.06042 13.0142H2.06042ZM9.06042 13.0142C9.24742 18.0632 10.7054 22.0142 11.9984 22.0142C13.2914 22.0142 14.7494 18.0642 14.9364 13.0142H9.06042ZM16.9364 13.0142C16.8254 16.4532 16.1724 19.5032 15.1234 21.5142C18.8944 20.2312 21.5684 16.8942 21.9364 13.0142H16.9364Z" fill="white"/>
</svg>
