<svg width="24" height="25" viewBox="0 0 24 25" fill="none" xmlns="http://www.w3.org/2000/svg">
<path d="M15.6 20.9C15.6 22.55 14.25 23.9 12.6 23.9C11.78 23.9 11.02 23.56 10.48 23.02C9.94002 22.48 9.60002 21.72 9.60002 20.9" stroke="#A7B5BE" stroke-width="1.5" stroke-miterlimit="10"/>
<path d="M12.6278 3.40997C8.91387 3.40997 5.89564 6.09997 5.89564 9.40997V12.3C5.89564 12.91 5.60391 13.84 5.25609 14.36L3.96576 16.27C3.16913 17.45 3.71892 18.76 5.17754 19.2C10.0135 20.64 15.2308 20.64 20.0668 19.2C21.4244 18.8 22.0191 17.37 21.2785 16.27L19.9882 14.36C19.6516 13.84 19.3599 12.91 19.3599 12.3V9.40997C19.3599 6.10997 16.3304 3.40997 12.6278 3.40997Z" stroke="#A7B5BE" stroke-width="1.5" stroke-miterlimit="10" stroke-linecap="round"/>
<path d="M14.4 3.5C14.0984 3.42857 13.7871 3.37302 13.466 3.34127C12.5319 3.24603 11.6368 3.30159 10.8 3.5C11.0822 2.9127 11.7827 2.5 12.6 2.5C13.4173 2.5 14.1179 2.9127 14.4 3.5Z" stroke="#A7B5BE" stroke-width="1.5" stroke-miterlimit="10" stroke-linecap="round" stroke-linejoin="round"/>
</svg>
