<svg width="37" height="37" viewBox="0 0 37 37" fill="none" xmlns="http://www.w3.org/2000/svg">
<g clip-path="url(#clip0_32_9650)">
<mask id="mask0_32_9650" style="mask-type:luminance" maskUnits="userSpaceOnUse" x="0" y="0" width="37" height="37">
<circle cx="18.5" cy="18.5" r="18.5" fill="white"/>
</mask>
<g mask="url(#mask0_32_9650)">
<rect width="37" height="37" fill="#FFB2B3"/>
<path fill-rule="evenodd" clip-rule="evenodd" d="M19.3213 7.91301C18.851 7.50157 18.1489 7.50157 17.6787 7.91301L15.3869 9.91833C15.1838 10.096 14.9286 10.2031 14.6595 10.2234L11.6038 10.454C10.989 10.5004 10.5004 10.989 10.454 11.6038L10.2234 14.6595C10.2031 14.9286 10.0961 15.1838 9.91836 15.3869L7.91304 17.6787C7.5016 18.1489 7.5016 18.851 7.91304 19.3212L9.91836 21.613C10.0961 21.8161 10.2031 22.0713 10.2234 22.3404L10.454 25.3962C10.5004 26.0109 10.989 26.4995 11.6038 26.5459L14.6595 26.7765C14.9286 26.7969 15.1838 26.9039 15.3869 27.0816L17.6787 29.0869C18.1489 29.4983 18.851 29.4983 19.3213 29.0869L21.6131 27.0816C21.8161 26.9039 22.0714 26.7969 22.3405 26.7765L25.3962 26.5459C26.0109 26.4995 26.4996 26.0109 26.546 25.3962L26.7766 22.3404C26.7969 22.0713 26.9039 21.8161 27.0816 21.613L29.0869 19.3212C29.4984 18.851 29.4984 18.1489 29.0869 17.6787L27.0816 15.3869C26.9039 15.1838 26.7969 14.9286 26.7766 14.6595L26.546 11.6038C26.4996 10.989 26.0109 10.5004 25.3962 10.454L22.3405 10.2234C22.0714 10.2031 21.8161 10.096 21.6131 9.91833L19.3213 7.91301ZM14.3892 14.4217C14.2228 14.2637 13.9562 14.2637 13.7897 14.4217C13.6233 14.5798 13.6233 14.8602 13.7897 15.0182L15.0744 16.2111C13.6342 17.2182 12.6764 18.8131 12.6764 20.642C12.6764 20.656 12.6763 20.6732 12.6762 20.6918C12.6759 20.7334 12.6756 20.7815 12.6764 20.8125H24.3236C24.3243 20.7815 24.324 20.7334 24.3238 20.6918C24.3237 20.6732 24.3236 20.656 24.3236 20.642C24.3236 18.8131 23.3658 17.2182 21.9256 16.2111L23.2102 15.0182C23.3766 14.8602 23.3766 14.5798 23.2102 14.4217C23.0438 14.2637 22.7772 14.2637 22.6107 14.4217L21.2405 15.7851C20.4315 15.3808 19.4776 15.1886 18.5 15.1886C17.5224 15.1886 16.5685 15.3808 15.7595 15.7851L14.3892 14.4217ZM16.7872 18.4266C16.7872 18.7246 16.5015 18.9379 16.1877 18.9379C15.8739 18.9379 15.6738 18.7246 15.6738 18.4266C15.6738 18.1285 15.8739 17.8301 16.1877 17.8301C16.5015 17.8301 16.7872 18.1285 16.7872 18.4266ZM20.8123 18.9379C21.1261 18.9379 21.3261 18.7246 21.3261 18.4266C21.3261 18.1285 21.1261 17.8301 20.8123 17.8301C20.4985 17.8301 20.2128 18.1285 20.2128 18.4266C20.2128 18.7246 20.4985 18.9379 20.8123 18.9379Z" fill="#3F4946"/>
</g>
</g>
<defs>
<clipPath id="clip0_32_9650">
<rect width="37" height="37" fill="white"/>
</clipPath>
</defs>
</svg>
